<svg xmlns="http://www.w3.org/2000/svg" version="1.1" xmlns:xlink="http://www.w3.org/1999/xlink" width="1000" height="1000"><style>
    #light-icon {
      display: inline;
    }
    #dark-icon {
      display: none;
    }

    @media (prefers-color-scheme: dark) {
      #light-icon {
        display: none;
      }
      #dark-icon {
        display: inline;
      }
    }
  </style><g id="light-icon"><svg xmlns="http://www.w3.org/2000/svg" version="1.1" xmlns:xlink="http://www.w3.org/1999/xlink" width="1000" height="1000"><g clip-path="url(#SvgjsClipPath1067)"><rect width="1000" height="1000" fill="#ffffff"></rect><g transform="matrix(5,0,0,5,0,0)"><svg xmlns="http://www.w3.org/2000/svg" version="1.1" xmlns:xlink="http://www.w3.org/1999/xlink" width="200" height="200"><svg xmlns="http://www.w3.org/2000/svg" version="1.1" xmlns:xlink="http://www.w3.org/1999/xlink" viewBox="0 0 200 200"><rect width="200" height="200" fill="url('#gradient')"></rect><defs><linearGradient id="gradient" gradientTransform="rotate(45 0.5 0.5)"><stop offset="0%" stop-color="#040404"></stop><stop offset="100%" stop-color="#000000"></stop></linearGradient><clipPath id="SvgjsClipPath1067"><rect width="1000" height="1000" x="0" y="0" rx="500" ry="500"></rect></clipPath></defs><g><g fill="#feffff" transform="matrix(4.205338809034908,0,0,4.205338809034908,15.49106143705653,130.89184569235454)" stroke="#eaf2e9" stroke-width="0"><path d="M6.69-4.82L4.50-4.82L4.50 0L1.07 0L1.07-14.22L6.75-14.22Q8.38-14.22 9.63-13.62Q10.89-13.02 11.58-11.91Q12.27-10.80 12.27-9.39L12.27-9.39Q12.27-7.31 10.78-6.07Q9.29-4.82 6.69-4.82L6.69-4.82ZM4.50-11.57L4.50-7.47L6.75-7.47Q7.74-7.47 8.27-7.97Q8.79-8.47 8.79-9.38L8.79-9.38Q8.79-10.37 8.25-10.97Q7.71-11.56 6.79-11.57L6.79-11.57L4.50-11.57ZM17.41-10.57L17.41 0L14.11 0L14.11-10.57L17.41-10.57ZM13.92-13.29L13.92-13.29Q13.92-13.99 14.42-14.44Q14.93-14.89 15.74-14.89Q16.55-14.89 17.06-14.44Q17.57-13.99 17.57-13.29Q17.57-12.59 17.06-12.14Q16.55-11.69 15.74-11.69Q14.93-11.69 14.42-12.14Q13.92-12.59 13.92-13.29ZM22.24-10.57L23.72-7.66L25.25-10.57L28.67-10.57L25.89-5.42L28.81 0L25.37 0L23.71-3.13L22.08 0L18.62 0L21.55-5.42L18.78-10.57L22.24-10.57ZM28.94-4.82L28.93-5.38Q28.93-6.96 29.54-8.20Q30.16-9.43 31.31-10.10Q32.46-10.76 34.01-10.76L34.01-10.76Q36.39-10.76 37.75-9.29Q39.12-7.82 39.12-5.29L39.12-5.29L39.12-5.18Q39.12-2.71 37.75-1.25Q36.38 0.20 34.03 0.20L34.03 0.20Q31.78 0.20 30.41-1.16Q29.04-2.51 28.94-4.82L28.94-4.82ZM32.23-5.77L32.22-5.18Q32.22-3.71 32.68-3.03Q33.13-2.34 34.03-2.34L34.03-2.34Q35.79-2.34 35.83-5.05L35.83-5.05L35.83-5.38Q35.83-8.22 34.01-8.22L34.01-8.22Q32.36-8.22 32.23-5.77L32.23-5.77Z"></path></g></g></svg></svg></g></g></svg></g><g id="dark-icon"><svg xmlns="http://www.w3.org/2000/svg" version="1.1" xmlns:xlink="http://www.w3.org/1999/xlink" width="1000" height="1000"><g><g transform="matrix(5,0,0,5,0,0)"><svg xmlns="http://www.w3.org/2000/svg" version="1.1" xmlns:xlink="http://www.w3.org/1999/xlink" width="200" height="200"><svg xmlns="http://www.w3.org/2000/svg" version="1.1" xmlns:xlink="http://www.w3.org/1999/xlink" viewBox="0 0 200 200"><rect width="200" height="200" fill="url('#gradient')"></rect><defs><linearGradient id="gradient" gradientTransform="rotate(45 0.5 0.5)"><stop offset="0%" stop-color="#040404"></stop><stop offset="100%" stop-color="#000000"></stop></linearGradient></defs><g><g fill="#feffff" transform="matrix(4.205338809034908,0,0,4.205338809034908,15.49106143705653,130.89184569235454)" stroke="#eaf2e9" stroke-width="0"><path d="M6.69-4.82L4.50-4.82L4.50 0L1.07 0L1.07-14.22L6.75-14.22Q8.38-14.22 9.63-13.62Q10.89-13.02 11.58-11.91Q12.27-10.80 12.27-9.39L12.27-9.39Q12.27-7.31 10.78-6.07Q9.29-4.82 6.69-4.82L6.69-4.82ZM4.50-11.57L4.50-7.47L6.75-7.47Q7.74-7.47 8.27-7.97Q8.79-8.47 8.79-9.38L8.79-9.38Q8.79-10.37 8.25-10.97Q7.71-11.56 6.79-11.57L6.79-11.57L4.50-11.57ZM17.41-10.57L17.41 0L14.11 0L14.11-10.57L17.41-10.57ZM13.92-13.29L13.92-13.29Q13.92-13.99 14.42-14.44Q14.93-14.89 15.74-14.89Q16.55-14.89 17.06-14.44Q17.57-13.99 17.57-13.29Q17.57-12.59 17.06-12.14Q16.55-11.69 15.74-11.69Q14.93-11.69 14.42-12.14Q13.92-12.59 13.92-13.29ZM22.24-10.57L23.72-7.66L25.25-10.57L28.67-10.57L25.89-5.42L28.81 0L25.37 0L23.71-3.13L22.08 0L18.62 0L21.55-5.42L18.78-10.57L22.24-10.57ZM28.94-4.82L28.93-5.38Q28.93-6.96 29.54-8.20Q30.16-9.43 31.31-10.10Q32.46-10.76 34.01-10.76L34.01-10.76Q36.39-10.76 37.75-9.29Q39.12-7.82 39.12-5.29L39.12-5.29L39.12-5.18Q39.12-2.71 37.75-1.25Q36.38 0.20 34.03 0.20L34.03 0.20Q31.78 0.20 30.41-1.16Q29.04-2.51 28.94-4.82L28.94-4.82ZM32.23-5.77L32.22-5.18Q32.22-3.71 32.68-3.03Q33.13-2.34 34.03-2.34L34.03-2.34Q35.79-2.34 35.83-5.05L35.83-5.05L35.83-5.38Q35.83-8.22 34.01-8.22L34.01-8.22Q32.36-8.22 32.23-5.77L32.23-5.77Z"></path></g></g></svg></svg></g></g></svg></g></svg>